HIERARCHY
ROOT Hips
{
	OFFSET 0.000000 0.000000 0.000000 
	CHANNELS 6 Xposition Yposition Zposition Yrotation Zrotation Xrotation 
	JOINT Lumbar
	{
		OFFSET 0.000000 0.000000 0.000000 
		CHANNELS 3 Zrotation Xrotation Yrotation
		JOINT Neck
		{
			OFFSET 0.000000 0.445665 0.000000 
			CHANNELS 3 Zrotation Xrotation Yrotation
			End Site
			{
				OFFSET 0.000000 0.227535 0.000000 
			}
		}
		JOINT RightShoulder
		{
			OFFSET 0.019635 0.377685 0.194865 
			CHANNELS 3 Zrotation Xrotation Yrotation
			JOINT RightElbow
			{
				OFFSET 0.000000 -0.243375 0.000000 
				CHANNELS 2 Zrotation Yrotation
				JOINT RightWrist
				{
					OFFSET 0.000000 -0.264825 0.000000 
					CHANNELS 2 Zrotation Xrotation
					End Site
					{
						OFFSET 0.006600 -0.176220 0.000990 
					}
				}
			}
		}
		JOINT LeftShoulder
		{
			OFFSET 0.019635 0.377685 -0.194865 
			CHANNELS 3 Zrotation Xrotation Yrotation
			JOINT LeftElbow
			{
				OFFSET 0.000000 -0.243375 0.000000 
				CHANNELS 2 Zrotation Yrotation
				JOINT LeftWrist
				{
					OFFSET 0.000000 -0.264825 0.000000 
					CHANNELS 2 Zrotation Xrotation
					End Site
					{
						OFFSET 0.006600 -0.176220 -0.000990 
					}
				}
			}
		}
	}
	JOINT RightHip
	{
		OFFSET 0.052140 -0.069960 0.075570 
		CHANNELS 3 Zrotation Xrotation Yrotation
		JOINT RightKnee
		{
			OFFSET 0.000000 -0.402270 0.000000 
			CHANNELS 1 Zrotation
			JOINT RightAnkle
			{
				OFFSET 0.000000 -0.404085 0.000000 
				CHANNELS 3 Zrotation Xrotation Yrotation
				End Site
				{
					OFFSET 0.204105 -0.089430 0.008415 
				}
			}
		}
	}
	JOINT LeftHip
	{
		OFFSET 0.052140 -0.069960 -0.075570 
		CHANNELS 3 Zrotation Xrotation Yrotation
		JOINT LeftKnee
		{
			OFFSET 0.000000 -0.402270 0.000000 
			CHANNELS 1 Zrotation
			JOINT LeftAnkle
			{
				OFFSET 0.000000 -0.404085 0.000000 
				CHANNELS 3 Zrotation Xrotation Yrotation
				End Site
				{
					OFFSET 0.204105 -0.089430 -0.008415 
				}
			}
		}
	}
}
MOTION
Frames: 22
Frame Time: 0.02
-1.60745 -0.01125 -0.16284 213.2462 -70.62297 4.44552 -13.71165 8.09801 8.97273 -28.5349 -0.00044 -2.11994 103.85844 7.58107 54.55996 5.95789 79.51126 -4.04017 2.10357 102.02532 9.32973 -29.00353 18.42837 -81.98189 -10.55486 6.27171 86.65913 -2.02815 -14.33809 -37.68852 -6.33493 -3.13933 -3.74494 88.3066 8.63768 7.20817 -31.25971 -7.09849 1.11777 2.82685
-1.60748 -0.01118 -0.16295 213.31949 -70.69326 4.5097 -13.59992 8.08925 8.91504 -28.36015 -0.22625 -2.11994 102.94034 6.14482 44.98737 7.79445 79.39695 -3.92825 2.12193 102.16083 9.14388 -29.09765 18.50047 -82.03571 -10.5643 6.17212 86.74845 -1.88563 -13.92156 -37.631 -6.36639 -3.17934 -3.76585 88.39063 8.62114 7.15329 -31.25333 -7.10177 1.12846 2.8311
-1.60755 -0.01108 -0.16306 213.4185 -70.77074 4.56591 -13.48062 8.07521 8.85869 -28.19476 -0.48148 -2.11994 101.62865 4.58089 32.50991 10.08918 79.7887 -3.59923 2.05857 102.31727 8.95196 -29.23597 18.60715 -82.10781 -10.54258 6.05506 86.84487 -1.70274 -13.40633 -37.56501 -6.40472 -3.23059 -3.79229 88.47679 8.61735 7.1236 -31.2323 -7.10752 1.13545 2.83278
-1.6076 -0.011 -0.16317 213.50745 -70.83746 4.6305 -13.37028 8.06214 8.79281 -28.04587 -0.74356 -2.11994 100.59011 3.09219 21.23792 12.04578 79.90969 -3.3275 1.99542 102.45676 8.77808 -29.36124 18.70599 -82.16867 -10.53314 5.9454 86.92883 -1.55051 -12.96175 -37.51041 -6.43649 -3.27383 -3.81463 88.55142 8.6078 7.09415 -31.215 -7.11269 1.14247 2.8349
-1.60764 -0.01091 -0.16329 213.58894 -70.9354 4.67423 -13.23676 8.05415 8.76441 -27.81297 -0.92379 -2.11994 99.16468 1.52022 10.37614 14.54064 80.19885 -3.22341 2.08886 102.62908 8.53869 -29.46095 18.77492 -82.24193 -10.5301 5.83832 87.05131 -1.34674 -12.40977 -37.42443 -6.48242 -3.32914 -3.84354 88.6705 8.59847 7.0165 -31.20995 -7.11574 1.15618 2.84
-1.60771 -0.01083 -0.1634 213.69147 -70.97077 4.75847 -13.14904 8.03486 8.65906 -27.75206 -1.27806 -2.11994 98.43947 0.09484 -1.94373 16.03691 80.25652 -2.72841 1.83916 102.7374 8.43418 -29.62161 18.91197 -82.29355 -10.50683 5.72201 87.09596 -1.23945 -12.05635 -37.40053 -6.50092 -3.36221 -3.86022 88.69853 8.59145 7.04203 -31.1763 -7.12361 1.15549 2.83847
-1.60782 -0.0108 -0.16349 213.8555 -70.82421 4.97276 -13.19742 7.98346 8.33197 -28.21066 -2.13138 -2.11994 99.84195 -0.8852 -18.29816 14.54085 79.59664 -1.1213 0.62917 102.66405 8.71001 -29.95504 19.24206 -82.28271 -10.4361 5.57944 86.91712 -1.42218 -12.28915 -37.56348 -6.43834 -3.32903 -3.84052 88.46251 8.58928 7.38044 -31.06302 -7.1457 1.11202 2.81741
-1.60795 -0.01078 -0.16358 214.03793 -70.61567 5.22524 -13.29068 7.92126 7.92911 -28.83301 -3.15388 -2.11994 101.94427 -1.71241 -35.88718 12.04619 78.68549 0.85402 -0.91719 102.52511 9.12071 -30.34542 19.63655 -82.24922 -10.34604 5.42901 86.66085 -1.70087 -12.72232 -37.78672 -6.34861 -3.27348 -3.80856 88.13679 8.58869 7.81576 -30.9222 -7.17229 1.05491 2.7901
-1.60807 -0.01076 -0.16367 214.20617 -70.44041 5.45006 -13.35847 7.86572 7.56656 -29.35024 -4.08188 -2.11994 103.66156 -2.61536 -52.43486 10.0898 77.85219 2.60706 -2.28938 102.41619 9.46586 -30.69883 19.99261 -82.22489 -10.26466 5.28532 86.44463 -1.92687 -13.05504 -37.97381 -6.27372 -3.2295 -3.783 87.86014 8.58629 8.18457 -30.79677 -7.19583 1.00658 2.76685
-1.60819 -0.01074 -0.16376 214.40109 -70.24419 5.71859 -13.44779 7.80312 7.17875 -29.99894 -5.08522 -2.11994 105.64744 -3.50057 -71.10029 7.79526 77.16266 4.60726 -3.75666 102.30812 9.82926 -31.09906 20.38914 -82.20573 -10.18305 5.12757 86.20862 -2.19017 -13.42506 -38.19789 -6.18853 -3.17991 -3.7541 87.54907 8.5889 8.64897 -30.65878 -7.22366 0.9472 2.73835
-1.60832 -0.0107 -0.16384 214.54293 -70.07633 5.90462 -13.50256 7.75207 6.82618 -30.41065 -5.97149 -2.11994 107.24585 -4.37954 -85.62435 5.95894 76.14154 6.16772 -5.10175 102.18116 10.18611 -31.4167 20.71553 -82.17049 -10.09719 4.99761 85.99475 -2.39862 -13.76485 -38.35893 -6.11825 -3.13661 -3.72921 87.28769 8.58136 8.93713 -30.54052 -7.24363 0.90768 2.71933
-1.60846 -0.0106 -0.16389 214.547 -70.00579 5.85907 -13.45463 7.74136 6.58395 -30.1433 -6.49191 -2.11994 107.59796 -5.32136 -88.26559 5.65588 73.96191 6.50733 -6.05016 102.02814 10.49695 -31.47562 20.83775 -82.09339 -10.0092 4.94519 85.86585 -2.43633 -13.98471 -38.3348 -6.09575 -3.11546 -3.7181 87.1907 8.54512 8.71541 -30.48426 -7.24063 0.92596 2.72783
-1.60861 -0.01048 -0.16394 214.49441 -69.96499 5.72818 -13.36954 7.74167 6.38089 -29.62833 -6.88841 -2.11994 107.53822 -6.2531 -86.70587 5.84179 71.5045 6.3772 -6.85784 101.85604 10.79527 -31.4528 20.88579 -82.00121 -9.91674 4.9213 85.76076 -2.41495 -14.1654 -38.24454 -6.08919 -3.10147 -3.71148 87.14553 8.49902 8.31437 -30.44871 -7.22964 0.96462 2.74605
-1.60875 -0.01036 -0.16399 214.45889 -69.90824 5.63282 -13.29932 7.73304 6.16336 -29.21727 -7.34266 -2.11994 107.67325 -7.16132 -87.15356 5.78591 69.38028 6.40349 -7.71633 101.68639 11.09651 -31.4776 20.96447 -81.91804 -9.82344 4.88516 85.64177 -2.41805 -14.35624 -38.18218 -6.07532 -3.08457 -3.70298 87.07354 8.45701 7.99294 -30.40332 -7.22236 0.99446 2.76005
-1.60891 -0.01026 -0.16402 214.46062 -69.86033 5.55262 -13.23994 7.74028 5.92877 -28.85057 -7.7981 -2.11994 107.80315 -8.18468 -87.24346 5.77779 66.40284 6.67462 -8.64814 101.54209 11.41567 -31.45838 21.05932 -81.82564 -9.74206 4.84571 85.5339 -2.43448 -14.58619 -38.13092 -6.06073 -3.06544 -3.69335 87.01339 8.41494 7.67625 -30.35897 -7.21472 1.02269 2.77333
-1.60904 -0.01012 -0.16409 214.37112 -69.80096 5.41992 -13.1476 7.71767 5.74047 -28.32777 -8.21778 -2.11994 107.83337 -8.9656 -87.04935 5.79967 65.10348 6.33073 -9.38186 101.33962 11.69086 -31.51295 21.10087 -81.74832 -9.63441 4.82006 85.40852 -2.4079 -14.72294 -38.04016 -6.05184 -3.05296 -3.68732 86.94062 8.37286 7.3141 -30.31749 -7.20611 1.05838 2.79008
-1.60908 -0.00987 -0.16425 214.04309 -69.71061 5.16436 -12.98148 7.60634 5.66692 -27.45656 -8.58163 -2.11994 107.71552 -9.09949 -87.17979 5.78563 68.81454 4.30359 -9.66396 100.99589 11.86316 -31.77006 21.02322 -81.72374 -9.46136 4.82534 85.23771 -2.27635 -14.60964 -37.8552 -6.0545 -3.05702 -3.6901 86.83295 8.3133 6.79649 -30.28105 -7.19454 1.11792 2.81777
-1.60909 -0.00958 -0.16444 213.62537 -69.60645 4.85861 -12.78176 7.46536 5.63968 -26.43151 -8.91027 -2.11994 107.50287 -8.98742 -87.1226 5.7898 74.1647 1.69041 -9.73725 100.5919 11.98787 -32.10681 20.89263 -81.71357 -9.26125 4.84353 85.04713 -2.1033 -14.40344 -37.63271 -6.06251 -3.06764 -3.6964 86.70889 8.25725 6.25088 -30.24653 -7.1826 1.18298 2.84804
-1.60911 -0.00931 -0.16461 213.24873 -69.50377 4.57465 -12.59178 7.34035 5.59384 -25.46205 -9.24626 -2.11994 107.3132 -8.97477 -87.12354 5.78998 78.56684 -0.59072 -9.86605 100.20612 12.12378 -32.42212 20.77913 -81.69205 -9.06935 4.85607 84.86032 -1.94911 -14.24011 -37.42795 -6.0684 -3.0754 -3.70114 86.58453 8.21329 5.76818 -30.20982 -7.17239 1.23994 2.87459
-1.60913 -0.00903 -0.16479 212.86809 -69.42258 4.29147 -12.42368 7.20508 5.53881 -24.54595 -9.61574 -2.11994 107.19569 -9.01115 -87.19639 5.78818 83.82838 -3.16512 -10.16155 99.85818 12.30418 -32.67688 20.69129 -81.69026 -8.8935 4.869 84.6966 -1.79255 -14.07232 -37.21804 -6.07358 -3.08288 -3.70586 86.49464 8.11336 5.07446 -30.17931 -7.15563 1.32042 2.91187
-1.60916 -0.00876 -0.16497 212.47607 -69.29266 3.99656 -12.20274 7.08413 5.51366 -23.4836 -9.90722 -2.11994 106.90914 -8.89054 -87.00019 5.78898 87.67812 -5.2622 -10.05561 99.41759 12.37975 -33.07204 20.53991 -81.65098 -8.67915 4.88345 84.47944 -1.6323 -13.89281 -37.01083 -6.08126 -3.09241 -3.7114 86.3284 8.12829 4.80708 -30.13618 -7.1521 1.35396 2.92772
-1.60923 -0.00852 -0.16513 212.06739 -69.03445 3.67585 -11.84246 7.00846 5.55773 -22.07123 -10.00461 -2.11994 106.19321 -8.36484 -87.29637 5.78836 87.37178 -5.89302 -8.95322 98.73485 12.18583 -33.88513 20.21298 -81.50552 -8.35465 4.90206 84.12263 -1.46805 -13.69826 -36.82007 -6.09479 -3.10622 -3.71836 85.9551 8.4827 5.80134 -30.05678 -7.18887 1.24796 2.87995
